<?xml version="1.0" encoding="UTF-8"?><svg xmlns="http://www.w3.org/2000/svg" xmlns:xlink="http://www.w3.org/1999/xlink" width="375" zoomAndPan="magnify" viewBox="0 0 375 374.999991" height="374.999991" preserveAspectRatio="xMidYMid meet" version="1.0"><defs><clipPath id="clip-0"><path d="M 113 76 L 269.230469 76 L 269.230469 296 L 113 296 Z M 113 76 " clip-rule="nonzero"/></clipPath></defs><path fill="rgb(0%, 0%, 0%)" d="M 196.386719 167.253906 C 161.386719 167.253906 133.011719 195.628906 133.011719 230.628906 C 133.011719 265.632812 161.386719 294.003906 196.386719 294.003906 C 231.386719 294.003906 259.761719 265.632812 259.761719 230.628906 C 259.761719 195.628906 231.386719 167.253906 196.386719 167.253906 Z M 196.386719 167.253906 " fill-opacity="1" fill-rule="nonzero"/><g clip-path="url(#clip-0)"><path fill="rgb(100%, 100%, 100%)" d="M 175.652344 295.730469 C 179.214844 295.488281 182.695312 294.785156 186.007812 293.503906 C 164.09375 288.769531 158.195312 264.332031 162.992188 244.675781 C 165.671875 233.699219 172.601562 223.953125 179.417969 215.402344 C 189.351562 202.953125 192.261719 189.636719 195.710938 174.578125 C 194.109375 185.574219 195.550781 196.964844 201.578125 206.472656 C 205.699219 212.96875 211.488281 218.222656 216.050781 224.414062 C 224.582031 235.996094 227.617188 250.25 226.695312 264.578125 C 225.261719 286.804688 210.566406 293.980469 206.636719 292.511719 C 224.539062 299.21875 268.371094 285.148438 269.003906 238.492188 C 269.191406 224.542969 266.535156 203.726562 257.296875 193.285156 C 261.03125 200.476562 257.628906 220.492188 249.351562 224.621094 C 249.835938 204.039062 242.402344 191.265625 235.664062 176.800781 C 229.097656 162.703125 224.707031 146.441406 230.984375 131.464844 C 227.050781 134.667969 225.671875 141.066406 223.296875 145.402344 C 220.085938 151.25 216.53125 156.929688 212.679688 162.375 C 215.332031 132.15625 207.242188 101.101562 190.1875 76.03125 C 195.757812 84.21875 195.722656 95.160156 192.871094 104.644531 C 190.015625 114.128906 184.683594 122.632812 180.089844 131.40625 C 175.492188 140.183594 171.128906 147.835938 171.402344 157.738281 C 167.964844 143.207031 168.890625 127.667969 174.035156 113.644531 C 159.792969 122.964844 157.371094 142.574219 157.058594 159.605469 C 156.75 176.640625 156.257812 195.851562 143.753906 207.402344 C 146.78125 189.78125 147.472656 174.464844 140.015625 168.597656 C 141.652344 181.730469 136.488281 193.742188 127.703125 203.625 C 105.714844 228.359375 112.855469 264.523438 129.914062 281.238281 C 140.328125 291.4375 159.863281 296.800781 175.652344 295.730469 " fill-opacity="1" fill-rule="nonzero"/></g></svg>